<?xml version="1.0" encoding="UTF-8" standalone="no"?>
<!DOCTYPE svg PUBLIC "-//W3C//DTD SVG 1.1//EN"
 "http://www.w3.org/Graphics/SVG/1.1/DTD/svg11.dtd">
<!-- Generated by graphviz version 12.2.1 (20241206.2353)
 -->
<!-- Pages: 1 -->
<svg width="316pt" height="131pt"
 viewBox="0.00 0.00 316.00 130.80" xmlns="http://www.w3.org/2000/svg" xmlns:xlink="http://www.w3.org/1999/xlink">
<g id="graph0" class="graph" transform="scale(1 1) rotate(0) translate(4 126.8)">
<polygon fill="white" stroke="none" points="-4,4 -4,-126.8 312,-126.8 312,4 -4,4"/>
<!-- _START -->
<g id="node1" class="node">
<title>_START</title>
</g>
<!-- q1r1 -->
<g id="node2" class="node">
<title>q1r1</title>
<path fill="none" stroke="black" d="M97.73,-118.8C97.73,-118.8 56.27,-118.8 56.27,-118.8 53.13,-118.8 50,-115.67 50,-112.53 50,-112.53 50,-106.27 50,-106.27 50,-103.13 53.13,-100 56.27,-100 56.27,-100 97.73,-100 97.73,-100 100.87,-100 104,-103.13 104,-106.27 104,-106.27 104,-112.53 104,-112.53 104,-115.67 100.87,-118.8 97.73,-118.8"/>
<text text-anchor="middle" x="77" y="-106.28" font-family="Monospace" font-size="10.00">(q1,r1)</text>
</g>
<!-- _START&#45;&gt;q1r1 -->
<g id="edge1" class="edge">
<title>_START&#45;&gt;q1r1</title>
<path fill="none" stroke="black" d="M27.14,-109.4C28.3,-109.4 36.29,-109.4 45.55,-109.4"/>
<polygon fill="black" stroke="black" points="50.53,-109.4 45.53,-111.65 49.25,-109.4 45.53,-109.4 45.53,-109.4 45.53,-109.4 49.25,-109.4 45.53,-107.15 50.53,-109.4"/>
</g>
<!-- q2r2 -->
<g id="node6" class="node">
<title>q2r2</title>
<path fill="none" stroke="black" d="M197.73,-18.8C197.73,-18.8 156.27,-18.8 156.27,-18.8 153.13,-18.8 150,-15.67 150,-12.53 150,-12.53 150,-6.27 150,-6.27 150,-3.13 153.13,0 156.27,0 156.27,0 197.73,0 197.73,0 200.87,0 204,-3.13 204,-6.27 204,-6.27 204,-12.53 204,-12.53 204,-15.67 200.87,-18.8 197.73,-18.8"/>
<text text-anchor="middle" x="177" y="-6.27" font-family="Monospace" font-size="10.00">(q2,r2)</text>
</g>
<!-- q1r1&#45;&gt;q2r2 -->
<g id="edge2" class="edge">
<title>q1r1&#45;&gt;q2r2</title>
<path fill="none" stroke="black" d="M86.59,-99.81C104.31,-82.09 142.27,-44.12 162.92,-23.48"/>
<polygon fill="black" stroke="black" points="166.43,-19.97 164.49,-25.09 165.52,-20.87 162.89,-23.5 162.89,-23.5 162.89,-23.5 165.52,-20.87 161.3,-21.91 166.43,-19.97"/>
<text text-anchor="middle" x="86.64" y="-87.08" font-family="Monospace" font-size="9.00">1</text>
</g>
<!-- q1r2 -->
<g id="node3" class="node">
<title>q1r2</title>
<path fill="none" stroke="black" d="M197.73,-118.8C197.73,-118.8 156.27,-118.8 156.27,-118.8 153.13,-118.8 150,-115.67 150,-112.53 150,-112.53 150,-106.27 150,-106.27 150,-103.13 153.13,-100 156.27,-100 156.27,-100 197.73,-100 197.73,-100 200.87,-100 204,-103.13 204,-106.27 204,-106.27 204,-112.53 204,-112.53 204,-115.67 200.87,-118.8 197.73,-118.8"/>
<path fill="none" stroke="black" d="M199.07,-122.8C199.07,-122.8 154.93,-122.8 154.93,-122.8 150.47,-122.8 146,-118.33 146,-113.87 146,-113.87 146,-104.93 146,-104.93 146,-100.47 150.47,-96 154.93,-96 154.93,-96 199.07,-96 199.07,-96 203.53,-96 208,-100.47 208,-104.93 208,-104.93 208,-113.87 208,-113.87 208,-118.33 203.53,-122.8 199.07,-122.8"/>
<text text-anchor="middle" x="177" y="-106.28" font-family="Monospace" font-size="10.00">(q1,r2)</text>
</g>
<!-- q2r3 -->
<g id="node7" class="node">
<title>q2r3</title>
<path fill="none" stroke="black" d="M297.73,-18.8C297.73,-18.8 256.27,-18.8 256.27,-18.8 253.13,-18.8 250,-15.67 250,-12.53 250,-12.53 250,-6.27 250,-6.27 250,-3.13 253.13,0 256.27,0 256.27,0 297.73,0 297.73,0 300.87,0 304,-3.13 304,-6.27 304,-6.27 304,-12.53 304,-12.53 304,-15.67 300.87,-18.8 297.73,-18.8"/>
<text text-anchor="middle" x="277" y="-6.27" font-family="Monospace" font-size="10.00">(q2,r3)</text>
</g>
<!-- q1r2&#45;&gt;q2r3 -->
<g id="edge3" class="edge">
<title>q1r2&#45;&gt;q2r3</title>
<path fill="none" stroke="black" d="M190.49,-95.91C209.52,-76.88 244.07,-42.33 263.25,-23.15"/>
<polygon fill="black" stroke="black" points="266.46,-19.94 264.52,-25.07 265.55,-20.85 262.93,-23.48 262.93,-23.48 262.93,-23.48 265.55,-20.85 261.33,-21.89 266.46,-19.94"/>
<text text-anchor="middle" x="186.64" y="-87.08" font-family="Monospace" font-size="9.00">1</text>
</g>
<!-- q1r3 -->
<g id="node4" class="node">
<title>q1r3</title>
<path fill="none" stroke="black" d="M297.73,-118.8C297.73,-118.8 256.27,-118.8 256.27,-118.8 253.13,-118.8 250,-115.67 250,-112.53 250,-112.53 250,-106.27 250,-106.27 250,-103.13 253.13,-100 256.27,-100 256.27,-100 297.73,-100 297.73,-100 300.87,-100 304,-103.13 304,-106.27 304,-106.27 304,-112.53 304,-112.53 304,-115.67 300.87,-118.8 297.73,-118.8"/>
<path fill="none" stroke="black" d="M299.07,-122.8C299.07,-122.8 254.93,-122.8 254.93,-122.8 250.47,-122.8 246,-118.33 246,-113.87 246,-113.87 246,-104.93 246,-104.93 246,-100.47 250.47,-96 254.93,-96 254.93,-96 299.07,-96 299.07,-96 303.53,-96 308,-100.47 308,-104.93 308,-104.93 308,-113.87 308,-113.87 308,-118.33 303.53,-122.8 299.07,-122.8"/>
<text text-anchor="middle" x="277" y="-106.28" font-family="Monospace" font-size="10.00">(q1,r3)</text>
</g>
<!-- q2r1 -->
<g id="node5" class="node">
<title>q2r1</title>
<path fill="none" stroke="black" d="M97.73,-18.8C97.73,-18.8 56.27,-18.8 56.27,-18.8 53.13,-18.8 50,-15.67 50,-12.53 50,-12.53 50,-6.27 50,-6.27 50,-3.13 53.13,0 56.27,0 56.27,0 97.73,0 97.73,0 100.87,0 104,-3.13 104,-6.27 104,-6.27 104,-12.53 104,-12.53 104,-15.67 100.87,-18.8 97.73,-18.8"/>
<text text-anchor="middle" x="77" y="-6.27" font-family="Monospace" font-size="10.00">(q2,r1)</text>
</g>
<!-- q1r3&#45;&gt;q2r1 -->
<g id="edge4" class="edge">
<title>q1r3&#45;&gt;q2r1</title>
<path fill="none" stroke="black" d="M249.61,-95.7C210.56,-76.18 139.45,-40.62 101.84,-21.82"/>
<polygon fill="black" stroke="black" points="97.64,-19.72 103.12,-19.94 98.78,-20.29 102.11,-21.95 102.11,-21.95 102.11,-21.95 98.78,-20.29 101.1,-23.97 97.64,-19.72"/>
<text text-anchor="middle" x="224.64" y="-87.08" font-family="Monospace" font-size="9.00">1</text>
</g>
<!-- q2r1&#45;&gt;q1r2 -->
<g id="edge5" class="edge">
<title>q2r1&#45;&gt;q1r2</title>
<path fill="none" stroke="black" d="M86.59,-18.99C103.2,-35.6 137.59,-69.99 158.84,-91.24"/>
<polygon fill="black" stroke="black" points="162.3,-94.7 157.17,-92.75 161.39,-93.79 158.76,-91.16 158.76,-91.16 158.76,-91.16 161.39,-93.79 160.36,-89.57 162.3,-94.7"/>
<text text-anchor="middle" x="86.64" y="-25.07" font-family="Monospace" font-size="9.00">1</text>
</g>
<!-- q2r2&#45;&gt;q1r3 -->
<g id="edge6" class="edge">
<title>q2r2&#45;&gt;q1r3</title>
<path fill="none" stroke="black" d="M186.59,-18.99C203.2,-35.6 237.59,-69.99 258.84,-91.24"/>
<polygon fill="black" stroke="black" points="262.3,-94.7 257.17,-92.75 261.39,-93.79 258.76,-91.16 258.76,-91.16 258.76,-91.16 261.39,-93.79 260.36,-89.57 262.3,-94.7"/>
<text text-anchor="middle" x="186.64" y="-25.07" font-family="Monospace" font-size="9.00">1</text>
</g>
<!-- q2r3&#45;&gt;q1r1 -->
<g id="edge7" class="edge">
<title>q2r3&#45;&gt;q1r1</title>
<path fill="none" stroke="black" d="M257.46,-19.17C220.87,-37.47 142.08,-76.86 101.81,-97"/>
<polygon fill="black" stroke="black" points="97.71,-99.04 101.18,-94.8 98.86,-98.47 102.18,-96.81 102.18,-96.81 102.18,-96.81 98.86,-98.47 103.19,-98.82 97.71,-99.04"/>
<text text-anchor="middle" x="224.64" y="-25.07" font-family="Monospace" font-size="9.00">1</text>
</g>
</g>
</svg>
